<svg xmlns="http://www.w3.org/2000/svg" viewBox="0 0 689.88 181.39"><defs><style>.cls-1,.cls-2{fill:#84cc16;}.cls-2{font-size:166.03px;font-family:CircularStd-Medium, Circular Std;font-weight:500;}.cls-3{letter-spacing:0em;}.cls-4{letter-spacing:-0.01em;}.cls-5{letter-spacing:0em;}.cls-6{letter-spacing:0em;}</style></defs><title>glayze wordmark</title><g id="Layer_2" data-name="Layer 2"><g id="Layer_1-2" data-name="Layer 1"><path class="cls-1" d="M159.75,64.18,129.16,18.82l-.44-.08h0l-34.3,23,31.29,46.41a18.54,18.54,0,0,1-5,25.75L69.37,148.56l0,0L40.15,168.33l57.73,11.23L143.27,149a31.63,31.63,0,0,0,13.37-20.21l7.94-40.81A31.67,31.67,0,0,0,159.75,64.18Zm-154.34,53L36,162.57l.45.08h0l34.29-23L39.45,93.2a18.55,18.55,0,0,1,5-25.75L95.8,32.83l0,0L125,13.06,67.29,1.83,21.9,32.44A31.6,31.6,0,0,0,8.52,52.65L.58,93.45A31.73,31.73,0,0,0,5.41,117.21Z"/><text class="cls-2" transform="translate(202.41 141.87)">g<tspan class="cls-3" x="97.79" y="0">l</tspan><tspan class="cls-4" x="141.62" y="0">a</tspan><tspan x="227.96" y="0">y</tspan><tspan class="cls-5" x="318.12" y="0">z</tspan><tspan class="cls-6" x="396.48" y="0">e</tspan></text></g></g></svg>